<?xml version="1.0" standalone="no"?>
<!DOCTYPE svg PUBLIC "-//W3C//DTD SVG 20010904//EN"
 "http://www.w3.org/TR/2001/REC-SVG-20010904/DTD/svg10.dtd">
<svg version="1.0" xmlns="http://www.w3.org/2000/svg"
 width="1408.000000pt" height="768.000000pt" viewBox="0 0 1408.000000 768.000000"
 preserveAspectRatio="xMidYMid meet">

<g transform="translate(0.000000,768.000000) scale(0.100000,-0.100000)"
fill="#000000" stroke="none">
<path d="M0 3840 l0 -3840 7040 0 7040 0 0 3840 0 3840 -7040 0 -7040 0 0
-3840z m6868 1641 c177 -38 343 -105 482 -196 110 -72 303 -268 383 -390 158
-241 276 -575 277 -786 0 -70 -3 -88 -16 -93 -9 -3 -165 -6 -349 -6 -251 0
-354 -4 -421 -15 -113 -19 -219 -70 -268 -127 -20 -23 -36 -35 -36 -28 0 8 17
33 38 55 20 23 10 14 -23 -20 -53 -55 -105 -87 -105 -66 0 20 82 131 121 164
140 121 348 167 752 167 209 0 193 -17 147 160 -77 292 -231 585 -404 769 -52
55 -183 161 -246 199 -127 76 -305 141 -463 168 -128 22 -387 15 -507 -15
-205 -51 -368 -139 -527 -284 -30 -28 -63 -51 -73 -52 -18 -2 -18 -1 -1 22 38
47 157 147 240 201 143 93 329 163 516 192 98 15 376 4 483 -19z m-603 -171
c-4 -19 -1 -20 33 -14 104 20 432 -1 432 -28 0 -4 -7 -8 -16 -8 -24 0 -124
-68 -124 -84 0 -7 -10 -18 -22 -24 -13 -6 -17 -11 -9 -11 21 -1 -17 -41 -39
-41 -9 0 -26 -11 -38 -25 -12 -14 -27 -25 -32 -25 -6 0 -21 -9 -33 -20 -13
-13 -30 -19 -42 -16 -49 12 -284 37 -439 46 -93 5 -170 11 -173 13 -5 5 87 75
160 122 71 45 180 92 267 116 83 23 80 23 75 -1z m-85 -344 c527 -72 947 -270
1262 -594 l96 -99 103 -7 c57 -4 105 -9 107 -10 1 -2 6 -21 9 -42 6 -36 5 -38
-11 -25 -18 16 -203 11 -391 -10 l-100 -11 -140 54 c-358 140 -704 216 -1154
253 -171 14 -759 22 -792 11 -8 -3 -52 -7 -99 -10 -47 -3 -125 -12 -174 -21
-48 -9 -90 -14 -93 -12 -8 8 223 68 392 102 367 73 786 106 1086 87 221 -15
408 -43 579 -86 74 -19 144 -37 155 -41 18 -7 17 -6 -2 9 -41 31 -143 77 -155
70 -6 -4 -8 -3 -5 3 7 12 -126 76 -218 105 -126 40 -416 108 -560 132 -483 80
-1206 94 -1565 30 -19 -4 -33 -4 -30 -1 9 9 261 56 440 81 151 22 248 32 470
50 128 10 672 -2 790 -18z m530 -29 c90 -29 233 -87 226 -94 -2 -3 -15 1 -28
8 -12 7 -84 34 -158 60 -143 51 -165 65 -40 26z m-2431 -19 c5 -13 5 -31 -1
-40 -16 -31 -138 -20 -138 12 0 18 64 50 98 50 25 0 35 -5 41 -22z m2759 -118
c43 -22 88 -50 102 -62 14 -13 21 -20 15 -17 -5 4 -55 32 -110 63 -115 65
-119 75 -7 16z m-1598 -28 c0 -4 -11 -39 -23 -78 -19 -56 -28 -69 -45 -70 -27
-2 -27 -5 -1 84 19 63 25 72 45 72 13 0 24 -4 24 -8z m-232 -39 c2 -23 -4 -39
-25 -62 -27 -31 -29 -31 -88 -24 -42 6 -60 13 -61 23 0 8 -4 23 -9 33 -4 10
-5 21 -1 24 16 17 105 42 141 40 37 -2 40 -4 43 -34z m-472 -29 c27 -16 44
-33 44 -44 0 -21 -25 -50 -43 -51 -7 0 -49 -2 -95 -3 -109 -3 -124 11 -67 62
36 31 87 61 108 62 5 0 28 -12 53 -26z m3357 -303 c51 -20 89 -239 53 -308
-22 -44 -36 -50 -36 -16 0 38 -44 217 -69 281 l-21 52 24 0 c14 0 35 -4 49 -9z
m-2715 -58 c-4 -81 -28 -85 -28 -4 0 48 3 61 15 61 13 0 15 -11 13 -57z m1189
21 c-3 -3 -12 -4 -19 -1 -8 3 -5 6 6 6 11 1 17 -2 13 -5z m50 -10 c-3 -3 -12
-4 -19 -1 -8 3 -5 6 6 6 11 1 17 -2 13 -5z m37 -88 c82 -14 152 -28 154 -31 8
-8 -10 -6 -94 9 -94 18 -413 40 -452 32 -15 -3 -72 -8 -127 -11 -208 -11 -555
-50 -715 -80 -41 -8 -136 -23 -210 -34 -74 -11 -151 -23 -170 -27 -19 -4 -33
-4 -30 -2 7 8 304 76 428 98 461 83 904 99 1216 46z m193 -42 c-3 -3 -12 -4
-19 -1 -8 3 -5 6 6 6 11 1 17 -2 13 -5z m-656 -75 c19 -16 20 -19 6 -15 -10 3
-30 6 -44 6 -21 0 -24 2 -13 15 16 20 23 19 51 -6z m-781 -166 c6 -32 20 -89
30 -128 10 -38 17 -71 15 -73 -10 -10 -71 156 -81 218 -5 32 -4 40 9 40 11 0
19 -17 27 -57z m186 -360 c21 -11 50 -35 62 -54 20 -29 23 -43 20 -93 -4 -56
-7 -62 -51 -101 l-46 -42 60 -78 c32 -43 59 -79 59 -81 0 -2 -28 -4 -62 -4
l-63 1 -54 74 c-54 73 -56 75 -98 75 l-43 0 0 -75 0 -75 -55 0 -55 0 0 233 c0
129 3 237 8 241 4 5 68 6 143 4 111 -3 143 -8 175 -25z m504 0 c27 -59 182
-409 191 -430 8 -22 7 -23 -49 -23 l-58 0 -19 50 -19 50 -109 0 -108 0 -21
-50 -21 -50 -53 0 c-30 0 -54 3 -54 6 0 8 166 386 191 437 18 35 22 37 68 37
42 0 49 -3 61 -27z m672 -19 c2 -25 1 -47 -1 -50 -2 -2 -62 -4 -133 -4 l-128
0 0 -55 0 -55 116 0 115 0 -3 -42 -3 -43 -112 -3 -113 -3 0 -89 0 -90 -55 0
-55 0 0 233 c0 129 3 237 7 240 3 4 86 7 184 7 l177 0 4 -46z m486 -6 l3 -48
-75 0 -76 0 0 -190 0 -190 -55 0 -55 0 0 190 0 190 -75 0 -75 0 0 43 c0 24 3
47 7 51 4 3 95 5 202 4 l196 -3 3 -47z m473 42 c91 -17 141 -72 141 -155 0
-41 -32 -115 -50 -115 -4 0 -18 -9 -31 -19 l-24 -18 62 -82 62 -81 -64 0 -63
0 -54 74 c-53 72 -56 75 -97 75 l-43 1 0 -75 0 -75 -55 0 -55 0 0 233 c0 129
3 237 7 240 10 11 204 8 264 -3z m584 -14 c89 -41 138 -119 138 -221 1 -110
-67 -197 -179 -231 -60 -18 -88 -18 -153 2 -103 30 -171 126 -171 241 0 83 78
189 161 219 58 21 148 17 204 -10z m558 10 c85 -31 139 -93 157 -182 37 -177
-121 -326 -304 -285 -237 53 -258 385 -30 466 49 18 128 18 177 1z m437 -106
c40 -66 76 -120 79 -120 3 0 38 53 77 118 l71 117 52 3 51 3 0 -240 0 -241
-50 0 -50 0 0 140 c0 77 -3 140 -7 140 -5 0 -37 -47 -73 -105 -35 -58 -69
-104 -75 -102 -5 2 -39 50 -75 107 l-65 104 -3 -142 -3 -142 -49 0 -50 0 0
240 0 240 49 0 49 0 72 -120z m-4290 89 c56 -25 86 -53 111 -101 60 -117 14
-258 -105 -321 -35 -19 -60 -22 -183 -25 l-143 -4 0 236 0 236 138 0 c116 0
144 -4 182 -21z m2139 -533 c41 -22 55 -41 42 -63 -9 -16 -10 -16 -11 -2 0 10
-17 24 -41 33 -23 9 -48 23 -56 31 -13 13 -11 15 12 15 14 0 38 -6 54 -14z
m-1531 -98 c20 -71 65 -156 87 -164 8 -3 35 10 61 30 51 39 102 47 157 23 25
-11 21 -12 -43 -10 -68 2 -73 1 -103 -31 -18 -17 -47 -38 -66 -46 -34 -14 -35
-13 -71 27 -19 22 -48 58 -63 80 l-27 39 16 68 c10 37 21 63 26 58 4 -4 16
-38 26 -74z m572 40 c36 -11 104 -42 151 -69 104 -59 199 -102 207 -94 4 3 1
10 -7 14 -9 6 -10 19 -5 47 l7 39 14 -35 c8 -19 29 -50 46 -69 26 -27 28 -32
12 -28 -11 3 -49 13 -85 22 -36 9 -99 36 -140 60 -98 56 -180 90 -276 114 -44
11 -88 22 -99 25 -11 3 9 2 45 -1 36 -3 94 -14 130 -25z m1352 -17 c227 -57
406 -83 483 -70 18 4 20 -1 17 -41 -5 -89 -136 -545 -152 -535 -4 3 -36 -52
-71 -120 -40 -78 -69 -125 -79 -125 -31 0 -208 59 -314 104 -60 25 -115 46
-123 46 -7 0 -78 32 -157 70 -148 73 -162 78 -150 58 12 -19 -49 28 -111 84
-51 46 -94 101 -66 84 11 -7 71 22 71 34 0 3 -7 17 -16 30 -9 14 7 0 35 -32
124 -137 344 -253 679 -357 56 -17 108 -34 116 -37 10 -4 21 9 37 45 12 28 25
51 30 51 5 0 5 7 2 17 -5 12 -3 14 7 8 10 -6 12 -4 7 8 -4 10 -2 17 4 17 6 0
9 7 5 15 -3 8 -1 15 4 15 5 0 17 17 26 38 28 67 76 253 71 277 -2 14 0 22 5
19 5 -3 6 7 3 23 -5 19 -4 24 3 15 7 -10 11 -5 16 19 5 24 2 35 -9 42 -9 4
-13 12 -11 16 6 9 -105 35 -214 51 -41 6 -127 26 -190 44 -83 25 -117 31 -123
22 -4 -6 -7 15 -5 47 1 31 5 57 9 57 4 0 76 -17 161 -39z m-1542 -115 c57 -21
78 -32 62 -34 -12 -2 -20 -8 -17 -13 4 -5 -2 -6 -12 -1 -40 16 -159 81 -178
97 -18 14 -16 14 20 -1 22 -9 78 -30 125 -48z m340 -157 c32 -27 33 -30 10
-24 -39 11 -97 51 -97 69 0 14 3 14 26 0 14 -9 42 -29 61 -45z"/>
<path d="M7553 4053 c9 -2 25 -2 35 0 9 3 1 5 -18 5 -19 0 -27 -2 -17 -5z"/>
<path d="M7343 4043 c9 -2 23 -2 30 0 6 3 -1 5 -18 5 -16 0 -22 -2 -12 -5z"/>
<path d="M5380 3480 l0 -70 59 0 c62 0 110 13 123 33 4 7 8 26 8 44 0 47 -29
63 -117 63 l-73 0 0 -70z"/>
<path d="M6006 3455 c-16 -39 -30 -76 -33 -82 -4 -10 12 -13 61 -13 46 0 66 4
66 13 -1 6 -15 43 -33 82 l-33 70 -28 -70z"/>
<path d="M7570 3479 l0 -71 80 4 c91 4 113 18 113 69 0 51 -31 69 -119 69
l-74 0 0 -71z"/>
<path d="M8165 3549 c-40 -12 -58 -27 -84 -69 -76 -125 72 -276 197 -200 45
28 76 97 67 151 -9 52 -56 106 -103 119 -42 11 -37 11 -77 -1z"/>
<path d="M8690 3512 c-50 -49 -60 -102 -31 -166 23 -54 70 -86 124 -86 137 0
196 167 92 259 -31 27 -43 31 -92 31 -51 0 -58 -3 -93 -38z"/>
<path d="M4810 3404 l0 -147 69 5 c118 9 177 64 168 157 -9 85 -70 131 -174
131 l-63 0 0 -146z"/>
</g>
</svg>
